<svg width="554" height="208" viewBox="0 -2 554 208" fill="none" xmlns="http://www.w3.org/2000/svg">
<path d="M553 55.392H533.503L522.518 34.944C522.32 34.624 521.792 33.728 520.934 32.256C520.143 30.784 519.252 29.376 518.262 28.032V55.392H500.448V0.671997H518.262V25.536C519.384 24.32 520.341 23.008 521.132 21.6C521.99 20.128 522.485 19.264 522.617 19.008L533.206 0.671997H552.01L540.728 19.008C540.53 19.264 540.101 19.936 539.441 21.024C538.782 22.112 538.056 23.136 537.264 24.096C536.538 24.992 535.747 25.824 534.889 26.592C536.076 27.68 537.033 28.768 537.759 29.856C538.551 30.88 539.441 32.256 540.431 33.984L553 55.392Z" fill="currentColor"/>
<path d="M474.15 43.392H457.721L454.752 55.392H436.542L454.752 0.671997H478.009L495.428 55.392H477.119L474.15 43.392ZM465.836 12.48L459.997 32.736H471.774L466.232 12.48H465.836Z" fill="currentColor"/>
<path d="M392.864 0.671997H433.936V12.192H410.679V22.176H430.274V32.544H410.679V43.68H433.837V55.392H392.864V0.671997Z" fill="currentColor"/>
<path d="M346.582 33.312V55.392H330.054V0.671997H346.78L361.724 22.752C363.967 26.016 365.683 28.768 366.871 31.008H367.167V21.792V0.671997H383.596V55.392H366.772L351.432 32.352L346.978 25.824H346.681L346.582 33.312Z" fill="currentColor"/>
<path d="M295.351 15.456C295.351 16.8 296.044 17.856 297.43 18.624C298.881 19.392 301.125 20.224 304.16 21.12C307.788 22.272 310.757 23.392 313.067 24.48C315.442 25.568 317.487 27.264 319.203 29.568C320.984 31.872 321.875 34.88 321.875 38.592C321.875 50.496 313.891 56.448 297.925 56.448C295.285 56.448 292.053 56.224 288.226 55.776C284.465 55.328 281.034 54.752 277.933 54.048C278.065 52.704 278.329 50.752 278.725 48.192C279.187 45.568 279.616 43.616 280.011 42.336C282.321 42.656 285.785 43.04 290.403 43.488C295.088 43.936 298.617 44.16 300.993 44.16C302.378 44.16 303.203 44.064 303.467 43.872C303.863 43.616 304.16 43.2 304.358 42.624C304.621 41.984 304.753 41.44 304.753 40.992C304.753 39.712 304.127 38.752 302.873 38.112C301.619 37.408 299.475 36.576 296.44 35.616C292.811 34.528 289.809 33.408 287.434 32.256C285.059 31.104 282.98 29.312 281.199 26.88C279.418 24.448 278.527 21.248 278.527 17.28C278.527 14.464 279.187 11.712 280.506 9.024C281.826 6.272 283.178 4.416 284.564 3.456C285.62 2.752 287.797 2.07999 291.096 1.43999C294.395 0.799995 297.496 0.479996 300.399 0.479996C307.788 0.479996 313.825 1.152 318.51 2.496C318.444 3.776 318.213 5.536 317.817 7.776C317.487 10.016 317.124 12.064 316.729 13.92L314.452 13.824C305.875 13.248 300.399 12.96 298.024 12.96C297.034 12.96 296.473 12.992 296.341 13.056C296.077 13.184 295.846 13.472 295.648 13.92C295.45 14.368 295.351 14.88 295.351 15.456Z" fill="currentColor"/>
<path d="M238.037 43.392H221.609L218.64 55.392H200.43L218.64 0.671997H241.897L259.316 55.392H241.006L238.037 43.392ZM229.724 12.48L223.885 32.736H235.662L230.12 12.48H229.724Z" fill="currentColor"/>
<path d="M186.123 55.392H166.626L155.64 34.944C155.442 34.624 154.915 33.728 154.057 32.256C153.265 30.784 152.374 29.376 151.385 28.032V55.392H133.57V0.671997H151.385V25.536C152.506 24.32 153.463 23.008 154.255 21.6C155.113 20.128 155.607 19.264 155.739 19.008L166.329 0.671997H185.133L173.85 19.008C173.653 19.264 173.224 19.936 172.564 21.024C171.904 22.112 171.178 23.136 170.387 24.096C169.661 24.992 168.869 25.824 168.011 26.592C169.199 27.68 170.156 28.768 170.881 29.856C171.673 30.88 172.564 32.256 173.554 33.984L186.123 55.392Z" fill="currentColor"/>
<path d="M126.97 53.568C124.529 54.592 121.691 55.328 118.459 55.776C115.226 56.224 112.224 56.448 109.452 56.448C100.479 56.448 93.4526 54.176 88.3723 49.632C83.2919 45.088 80.7517 38.112 80.7517 28.704C80.7517 19.104 83.4238 11.936 88.7681 7.2C94.1124 2.4 101.634 0 111.333 0C115.951 0 120.768 0.608 125.782 1.824C125.782 3.104 125.65 5.024 125.386 7.584C125.122 10.08 124.858 11.84 124.595 12.864H118.36C113.807 12.864 110.211 12.96 107.572 13.152C104.999 13.28 103.448 13.568 102.921 14.016C101.931 14.912 101.172 16.736 100.644 19.488C100.116 22.176 99.8525 24.768 99.8525 27.264C99.8525 31.616 100.413 34.976 101.535 37.344C102.657 39.648 104.075 41.184 105.791 41.952C107.44 42.72 110.178 43.104 114.005 43.104C117.04 43.104 120.999 42.848 125.881 42.336L126.97 53.568Z" fill="currentColor"/>
<path d="M54.8987 0.671997H72.7129V55.392H54.8987V0.671997Z" fill="currentColor"/>
<path d="M22.7626 0.384003C28.1069 0.384003 32.6265 0.864002 36.3213 1.824C40.0161 2.784 42.9521 4.64 45.1294 7.392C47.3727 10.08 48.4943 13.952 48.4943 19.008C48.4943 21.248 48.1314 23.552 47.4057 25.92C46.7459 28.224 45.8882 30.24 44.8325 31.968C43.8428 33.696 42.9521 34.816 42.1604 35.328C41.2367 35.968 39.1913 36.48 36.0244 36.864C32.8574 37.184 29.1296 37.344 24.841 37.344C23.3235 37.344 20.9812 37.28 17.8142 37.152V55.392H0V0.671999C6.92776 0.480001 14.5153 0.384003 22.7626 0.384003ZM30.1852 25.056C30.845 24.224 31.1749 22.56 31.1749 20.064C31.1749 16.8 30.4492 14.496 28.9976 13.152C27.6121 11.808 25.1709 11.136 21.674 11.136C20.4864 11.136 19.1998 11.232 17.8142 11.424V26.016C18.474 26.08 19.7606 26.112 21.674 26.112C26.7544 26.112 29.5914 25.76 30.1852 25.056Z" fill="currentColor"/>
<path d="M553 124.392H533.545L522.583 103.944C522.386 103.624 521.859 102.728 521.003 101.256C520.213 99.784 519.324 98.376 518.337 97.032V124.392H500.561V69.672H518.337V94.536C519.456 93.32 520.411 92.008 521.201 90.6C522.056 89.128 522.55 88.264 522.682 88.008L533.249 69.672H552.012L540.754 88.008C540.557 88.264 540.129 88.936 539.47 90.024C538.812 91.112 538.088 92.136 537.298 93.096C536.574 93.992 535.784 94.824 534.928 95.592C536.113 96.68 537.067 97.768 537.792 98.856C538.582 99.88 539.47 101.256 540.458 102.984L553 124.392Z" fill="currentColor"/>
<path d="M493.974 122.568C491.538 123.592 488.707 124.328 485.481 124.776C482.255 125.224 479.259 125.448 476.494 125.448C467.54 125.448 460.529 123.176 455.459 118.632C450.39 114.088 447.855 107.112 447.855 97.704C447.855 88.104 450.521 80.936 455.854 76.2C461.187 71.4 468.693 69 478.371 69C482.979 69 487.785 69.608 492.789 70.824C492.789 72.104 492.657 74.024 492.394 76.584C492.131 79.08 491.867 80.84 491.604 81.864H485.382C480.84 81.864 477.251 81.96 474.618 82.152C472.05 82.28 470.503 82.568 469.976 83.016C468.989 83.912 468.232 85.736 467.705 88.488C467.178 91.176 466.915 93.768 466.915 96.264C466.915 100.616 467.475 103.976 468.594 106.344C469.713 108.648 471.129 110.184 472.84 110.952C474.486 111.72 477.218 112.104 481.037 112.104C484.066 112.104 488.016 111.848 492.888 111.336L493.974 122.568Z" fill="currentColor"/>
<path d="M422.057 69.672H439.833V124.392H422.057V69.672Z" fill="currentColor"/>
<path d="M389.99 69.384C395.323 69.384 399.833 69.864 403.52 70.824C407.207 71.784 410.136 73.64 412.309 76.392C414.548 79.08 415.667 82.952 415.667 88.008C415.667 90.248 415.305 92.552 414.58 94.92C413.922 97.224 413.066 99.24 412.013 100.968C411.025 102.696 410.136 103.816 409.346 104.328C408.425 104.968 406.384 105.48 403.224 105.864C400.063 106.184 396.344 106.344 392.064 106.344C390.55 106.344 388.213 106.28 385.052 106.152V124.392H367.276V69.672C374.189 69.48 381.761 69.384 389.99 69.384ZM397.397 94.056C398.055 93.224 398.385 91.56 398.385 89.064C398.385 85.8 397.66 83.496 396.212 82.152C394.829 80.808 392.393 80.136 388.904 80.136C387.719 80.136 386.435 80.232 385.052 80.424V95.016C385.711 95.08 386.995 95.112 388.904 95.112C393.973 95.112 396.804 94.76 397.397 94.056Z" fill="currentColor"/>
<path d="M326.281 112.392H309.888L306.925 124.392H288.754L306.925 69.672H330.133L347.514 124.392H329.244L326.281 112.392ZM317.986 81.48L312.159 101.736H323.911L318.381 81.48H317.986Z" fill="currentColor"/>
<path d="M274.477 124.392H255.023L244.061 103.944C243.863 103.624 243.336 102.728 242.481 101.256C241.69 99.784 240.802 98.376 239.814 97.032V124.392H222.038V69.672H239.814V94.536C240.933 93.32 241.888 92.008 242.678 90.6C243.534 89.128 244.028 88.264 244.159 88.008L254.726 69.672H273.49L262.232 88.008C262.034 88.264 261.606 88.936 260.948 90.024C260.289 91.112 259.565 92.136 258.775 93.096C258.051 93.992 257.261 94.824 256.405 95.592C257.59 96.68 258.545 97.768 259.269 98.856C260.059 99.88 260.948 101.256 261.935 102.984L274.477 124.392Z" fill="currentColor"/>
<path d="M195.796 112.392H179.402L176.44 124.392H158.269L176.44 69.672H199.647L217.028 124.392H198.759L195.796 112.392ZM187.5 81.48L181.674 101.736H193.426L187.895 81.48H187.5Z" fill="currentColor"/>
<path d="M114.685 69.672H155.669V81.192H132.461V91.176H152.015V101.544H132.461V112.68H155.57V124.392H114.685V69.672Z" fill="currentColor"/>
<path d="M68.5019 102.312V124.392H52.0096V69.672H68.6994L83.6115 91.752C85.85 95.016 87.5618 97.768 88.7469 100.008H89.0431V90.792V69.672H105.437V124.392H88.6481L73.3409 101.352L68.8969 94.824H68.6006L68.5019 102.312Z" fill="currentColor"/>
<path d="M17.381 84.456C17.381 85.8 18.0723 86.856 19.4549 87.624C20.9033 88.392 23.1418 89.224 26.1703 90.12C29.7914 91.272 32.754 92.392 35.0584 93.48C37.4285 94.568 39.4695 96.264 41.1812 98.568C42.9588 100.872 43.8476 103.88 43.8476 107.592C43.8476 119.496 35.8813 125.448 19.9487 125.448C17.3152 125.448 14.0892 125.224 10.2706 124.776C6.51789 124.328 3.09435 123.752 0 123.048C0.131675 121.704 0.395024 119.752 0.790047 117.192C1.25091 114.568 1.67885 112.616 2.07387 111.336C4.37818 111.656 7.83464 112.04 12.4432 112.488C17.1177 112.936 20.64 113.16 23.0101 113.16C24.3927 113.16 25.2157 113.064 25.479 112.872C25.8741 112.616 26.1703 112.2 26.3678 111.624C26.6312 110.984 26.7629 110.44 26.7629 109.992C26.7629 108.712 26.1374 107.752 24.8865 107.112C23.6356 106.408 21.4959 105.576 18.4674 104.616C14.8463 103.528 11.8507 102.408 9.48057 101.256C7.11043 100.104 5.03655 98.312 3.25895 95.88C1.48134 93.448 0.592536 90.248 0.592536 86.28C0.592536 83.464 1.25091 80.712 2.56765 78.024C3.8844 75.272 5.23406 73.416 6.61665 72.456C7.67004 71.752 9.84267 71.08 13.1345 70.44C16.4264 69.8 19.5208 69.48 22.4176 69.48C29.7914 69.48 35.8155 70.152 40.4899 71.496C40.4241 72.776 40.1937 74.536 39.7986 76.776C39.4695 79.016 39.1073 81.064 38.7123 82.92L36.4409 82.824C27.8821 82.248 22.4176 81.96 20.0475 81.96C19.0599 81.96 18.5003 81.992 18.3686 82.056C18.1053 82.184 17.8748 82.472 17.6773 82.92C17.4798 83.368 17.381 83.88 17.381 84.456Z" fill="currentColor"/>
<path d="M553.478 193.008H534.566L523.91 172.56C523.718 172.24 523.206 171.344 522.374 169.872C521.606 168.4 520.742 166.992 519.782 165.648V193.008H502.502V138.288H519.782V163.152C520.87 161.936 521.798 160.624 522.566 159.216C523.398 157.744 523.878 156.88 524.006 156.624L534.278 138.288H552.518L541.574 156.624C541.382 156.88 540.966 157.552 540.326 158.64C539.686 159.728 538.982 160.752 538.214 161.712C537.51 162.608 536.742 163.44 535.91 164.208C537.062 165.296 537.99 166.384 538.694 167.472C539.462 168.496 540.326 169.872 541.286 171.6L553.478 193.008Z" fill="currentColor"/>
<path d="M476.993 181.008H461.057L458.177 193.008H440.513L458.177 138.288H480.737L497.633 193.008H479.873L476.993 181.008ZM468.929 150.096L463.265 170.352H474.689L469.312 150.096H468.929Z" fill="currentColor"/>
<path d="M398.145 138.288H437.985V149.808H415.425V159.792H434.433V170.16H415.425V181.296H437.889V193.008H398.145V138.288Z" fill="currentColor"/>
<path d="M353.251 170.928V193.008H337.219V138.288H353.443L367.939 160.368C370.115 163.632 371.779 166.384 372.931 168.624H373.219V159.408V138.288H389.155V193.008H372.835L357.955 169.968L353.635 163.44H353.347L353.251 170.928Z" fill="currentColor"/>
<path d="M303.557 153.072C303.557 154.416 304.229 155.472 305.573 156.24C306.981 157.008 309.157 157.84 312.101 158.736C315.621 159.888 318.501 161.008 320.741 162.096C323.045 163.184 325.029 164.88 326.693 167.184C328.421 169.488 329.285 172.496 329.285 176.208C329.285 188.112 321.541 194.064 306.053 194.064C303.493 194.064 300.357 193.84 296.645 193.392C292.997 192.944 289.669 192.368 286.661 191.664C286.789 190.32 287.045 188.368 287.429 185.808C287.877 183.184 288.293 181.232 288.677 179.952C290.917 180.272 294.277 180.656 298.757 181.104C303.301 181.552 306.725 181.776 309.029 181.776C310.373 181.776 311.173 181.68 311.429 181.488C311.813 181.232 312.101 180.816 312.293 180.24C312.549 179.6 312.677 179.056 312.677 178.608C312.677 177.328 312.069 176.368 310.853 175.728C309.637 175.024 307.557 174.192 304.613 173.232C301.093 172.144 298.181 171.024 295.877 169.872C293.573 168.72 291.557 166.928 289.829 164.496C288.101 162.064 287.237 158.864 287.237 154.896C287.237 152.08 287.877 149.328 289.157 146.64C290.437 143.888 291.748 142.032 293.092 141.072C294.116 140.368 296.229 139.696 299.429 139.056C302.629 138.416 305.637 138.096 308.453 138.096C315.621 138.096 321.477 138.768 326.021 140.112C325.957 141.392 325.733 143.152 325.349 145.392C325.029 147.632 324.677 149.68 324.293 151.536L322.085 151.44C313.765 150.864 308.452 150.576 306.148 150.576C305.188 150.576 304.645 150.608 304.517 150.672C304.261 150.8 304.037 151.088 303.845 151.536C303.653 151.984 303.557 152.496 303.557 153.072Z" fill="currentColor"/>
<path d="M247.961 181.008H232.025L229.145 193.008H211.481L229.145 138.288H251.705L268.601 193.008H250.841L247.961 181.008ZM239.897 150.096L234.233 170.352H245.657L240.281 150.096H239.897Z" fill="currentColor"/>
<path d="M197.603 193.008H178.691L168.035 172.56C167.843 172.24 167.331 171.344 166.499 169.872C165.731 168.4 164.867 166.992 163.907 165.648V193.008H146.627V138.288H163.907V163.152C164.995 161.936 165.923 160.624 166.691 159.216C167.523 157.744 168.003 156.88 168.131 156.624L178.403 138.288H196.643L185.699 156.624C185.507 156.88 185.091 157.552 184.451 158.64C183.811 159.728 183.107 160.752 182.339 161.712C181.635 162.608 180.867 163.44 180.035 164.208C181.187 165.296 182.115 166.384 182.819 167.472C183.587 168.496 184.451 169.872 185.411 171.6L197.603 193.008Z" fill="currentColor"/>
<path d="M99.3638 138.288H139.204V149.808H116.644V159.792H135.652V170.16H116.644V181.296H139.108V193.008H99.3638V138.288Z" fill="currentColor"/>
<path d="M52.6763 138.288H92.5163V149.808H69.9563V159.792H88.9643V170.16H69.9563V181.296H92.4203V193.008H52.6763V138.288Z" fill="currentColor"/>
<path d="M22.08 138C27.264 138 31.648 138.48 35.232 139.44C38.816 140.4 41.664 142.256 43.776 145.008C45.952 147.696 47.04 151.568 47.04 156.624C47.04 158.864 46.688 161.168 45.984 163.536C45.344 165.84 44.512 167.856 43.488 169.584C42.528 171.312 41.664 172.432 40.896 172.944C40 173.584 38.016 174.096 34.944 174.48C31.872 174.8 28.256 174.96 24.096 174.96C22.624 174.96 20.352 174.896 17.28 174.768V193.008H0V138.288C6.72 138.096 14.08 138 22.08 138ZM29.28 162.672C29.92 161.84 30.24 160.176 30.24 157.68C30.24 154.416 29.536 152.112 28.128 150.768C26.784 149.424 24.416 148.752 21.024 148.752C19.872 148.752 18.624 148.848 17.28 149.04V163.632C17.92 163.696 19.168 163.728 21.024 163.728C25.952 163.728 28.704 163.376 29.28 162.672Z" fill="currentColor"/>
</svg>
